<svg width="32" height="32" xmlns="http://www.w3.org/2000/svg">
 <title>PTA-logo</title>

 <g>
  <title>Layer 1</title>
  <path fill="#ffffff" d="m23.2046,19.13991l0,2.87045l-4.43276,-2.87045l-18.28375,0l0,-17.78429l25.48561,0l0,17.78429l-2.7691,0zm3.88003,1.13456l0,-10.30751l4.42728,0l0,17.80698a27.25871,28.25632 0 0 0 -12.18734,2.87045a27.25871,28.25632 0 0 0 -12.18734,-2.87045l0,-7.46543l11.63461,0l5.53821,3.4434l0,-3.4434l2.77458,-0.03404zm-24.95477,-17.19432l0,14.35791l22.18019,0l0,-14.35791l-22.18019,0zm14.97833,5.16794l0,-1.70185l4.98548,2.83641l0,1.8153l-4.98548,2.83641l0,-1.70185l3.3273,-2.00818l-3.3273,-2.07625zm-11.08189,2.00818l3.3273,2.00818l0,1.70185l-4.98548,-2.83641l0,-1.78694l4.98548,-2.83641l0,1.70185l-3.3273,2.04789zm9.97644,-3.73272l-3.88003,7.46543l-1.64176,0l3.6666,-7.46543l1.85519,0z" class="a"/>
 </g>
</svg>