<svg width="210" height="55" xmlns="http://www.w3.org/2000/svg">

 <title>PTA-logo</title>
 <g>
  <title>Layer 1</title>
  <path id="svg_1" fill="#0c4991" d="m43.95405,33.035l0,5.06l-8.1,-5.06l-33.41,0l0,-31.35l46.57,0l0,31.35l-5.06,0zm7.09,2l0,-18.17l8.09,0l0,31.39a49.81,49.81 0 0 0 -22.27,5.06a49.81,49.81 0 0 0 -22.27,-5.06l0,-13.16l21.26,0l10.12,6.07l0,-6.07l5.07,-0.06zm-45.6,-30.31l0,25.31l40.53,0l0,-25.31l-40.53,0zm27.37,9.11l0,-3l9.11,5l0,3.2l-9.11,5l0,-3l6.08,-3.54l-6.08,-3.66zm-20.25,3.54l6.08,3.54l0,3l-9.11,-5l0,-3.15l9.11,-5l0,3l-6.08,3.61zm18.23,-6.58l-7.09,13.16l-3,0l6.7,-13.16l3.39,0z" class="a"/>
  <path id="svg_2" fill="#0c4991" d="m74.09405,3.59l24.53,0q8,0 12,3.81t4,10.87q0,7.23 -4.36,11.32t-13.3,4l-8.1,0l0,17.82l-14.77,0l0,-47.82zm14.84,20.39l3.61,0c2.84,0 4.85,-0.5 6,-1.49a4.81,4.81 0 0 0 1.73,-3.8a5.31,5.31 0 0 0 -1.5,-3.81c-1,-1 -2.88,-1.57 -5.65,-1.57l-4.2,0l0,10.67l0.01,0zm28.09,-20.39l44.92,0l0,11.8l-15.06,0l0,36l-14.78,0l0,-36l-15.08,0l0,-11.8zm72.42,39.93l-16.79,0l-2.32,7.89l-15.11,0l18,-47.82l16.12,0l18,47.82l-15.51,0l-2.39,-7.89zm-3.06,-10.35l-5.28,-17.21l-5.26,17.21l10.54,0z" class="a"/>
 </g>
</svg>