<svg xmlns="http://www.w3.org/2000/svg" viewBox="0 0 240 150">
    <defs>
        <style>.a{fill:#0c4991;}</style>
    </defs>
    <title>PTA-logo</title>
    <path class="a" d="M59.51,81v5.06L51.41,81H18V49.65H64.57V81Zm7.09,2V64.83h8.09V96.22a49.81,49.81,0,0,0-22.27,5.06,49.81,49.81,0,0,0-22.27-5.06V83.06H51.41l10.12,6.07V83.06ZM21,52.69V78H61.53V52.69ZM48.37,61.8v-3l9.11,5V67l-9.11,5v-3l6.08-3.54ZM28.12,65.34l6.08,3.54v3l-9.11-5V63.73l9.11-5v3Zm18.23-6.58L39.26,71.92h-3l6.7-13.16Z" />
    <path class="a" d="M89.65,50.42h24.53q8,0,12,3.81t4,10.87q0,7.23-4.36,11.32t-13.3,4h-8.1V98.24H89.65Zm14.84,20.39h3.61c2.84,0,4.85-.5,6-1.49a4.81,4.81,0,0,0,1.73-3.8,5.31,5.31,0,0,0-1.5-3.81c-1-1-2.88-1.57-5.65-1.57h-4.2V70.81Zm28.09-20.39H177.5v11.8H162.44v36H147.66v-36H132.58ZM205,90.35H188.21l-2.32,7.89H170.78l18-47.82h16.12l18,47.82H207.39ZM201.94,80l-5.28-17.21L191.4,80Z" />
</svg>